/* XPM */
static char * ekstertera_xpm[] = {
"32 32 608 2",
"  	c None",
". 	c #549956",
"+ 	c #75AD6D",
"@ 	c #7BB074",
"# 	c #75AE6E",
"$ 	c #559957",
"% 	c #76AF6F",
"& 	c #B3D3A0",
"* 	c #D5E7C3",
"= 	c #E4EFD4",
"- 	c #EAF2DD",
"; 	c #EDF3E0",
"> 	c #E5F0D5",
", 	c #D6E8C4",
"' 	c #B4D3A2",
") 	c #78AE6F",
"! 	c #77AE6E",
"~ 	c #CAE1B6",
"{ 	c #E9F2DB",
"] 	c #EEF3E5",
"^ 	c #EDF4E6",
"/ 	c #EBF3E5",
"( 	c #EAF3E3",
"_ 	c #E8F2E1",
": 	c #E9F3E3",
"< 	c #ECF3E5",
"[ 	c #EEF4E7",
"} 	c #EEF3E6",
"| 	c #E9F1DB",
"1 	c #CBE2B8",
"2 	c #79B171",
"3 	c #ADD09A",
"4 	c #E5EED6",
"5 	c #F2F9EA",
"6 	c #E8F2E0",
"7 	c #E7F5DE",
"8 	c #DDEBD3",
"9 	c #DAEAD0",
"0 	c #DAEACF",
"a 	c #DBEAD0",
"b 	c #E1EED9",
"c 	c #E8F1E1",
"d 	c #ECF2E4",
"e 	c #E6EFD7",
"f 	c #B0D29D",
"g 	c #C3DCAE",
"h 	c #E9F0DE",
"i 	c #EFFAE7",
"j 	c #A1AB9B",
"k 	c #3C3E3A",
"l 	c #8C9785",
"m 	c #E1F2D5",
"n 	c #D9E9CD",
"o 	c #D8E8CC",
"p 	c #DCEBD2",
"q 	c #E6F0DE",
"r 	c #EAF1DF",
"s 	c #C7DEB2",
"t 	c #C4DCB0",
"u 	c #E7EEDD",
"v 	c #E3F2DA",
"w 	c #B1BFA8",
"x 	c #3F3F3F",
"y 	c #B9B8BA",
"z 	c #504F50",
"A 	c #A3AF99",
"B 	c #E0F2D3",
"C 	c #D7E8CB",
"D 	c #D8E8CB",
"E 	c #D7E8CA",
"F 	c #D6E7C9",
"G 	c #D5E7C9",
"H 	c #DEECD4",
"I 	c #E9EFDE",
"J 	c #C8DEB3",
"K 	c #B0D09D",
"L 	c #E4ECD9",
"M 	c #D7E7CD",
"N 	c #D5E8C8",
"O 	c #52584F",
"P 	c #5E5D5F",
"Q 	c #F9F9F9",
"R 	c #C3C2C3",
"S 	c #525650",
"T 	c #D3E5C6",
"U 	c #D7E9CA",
"V 	c #D6E8C9",
"W 	c #D5E7C8",
"X 	c #D5E6C8",
"Y 	c #D4E5C7",
"Z 	c #D2E5C5",
"` 	c #D8E8CD",
" .	c #E5EEDA",
"..	c #B4D2A0",
"+.	c #7EB174",
"@.	c #DEE9D0",
"#.	c #D3E4C9",
"$.	c #D3E7C6",
"%.	c #AFBFA5",
"&.	c #2C2C2C",
"*.	c #717071",
"=.	c #CCCCCC",
"-.	c #E2E2E2",
";.	c #6B6B6C",
">.	c #9DAA94",
",.	c #DBEECD",
"'.	c #D4E6C7",
").	c #D3E6C7",
"!.	c #D2E5C6",
"~.	c #D2E4C5",
"{.	c #D1E4C4",
"].	c #CFE2C2",
"^.	c #D5E6CA",
"/.	c #E1EBD2",
"(.	c #85B479",
"_.	c #C9DDB6",
":.	c #D3E3C9",
"<.	c #C9DEBC",
"[.	c #D5EAC7",
"}.	c #808A7A",
"|.	c #2D2C2E",
"1.	c #6D6D6D",
"2.	c #B3B3B3",
"3.	c #C7C7C7",
"4.	c #959496",
"5.	c #71786C",
"6.	c #D9EECC",
"7.	c #D1E5C4",
"8.	c #D0E4C3",
"9.	c #CFE3C2",
"0.	c #CEE2C1",
"a.	c #CBE0BE",
"b.	c #D6E5CB",
"c.	c #CDDFB9",
"d.	c #85B379",
"e.	c #D4E3C6",
"f.	c #C5DBB9",
"g.	c #C7DDBA",
"h.	c #CFE5C2",
"i.	c #61675D",
"j.	c #363536",
"k.	c #606060",
"l.	c #9D9D9D",
"m.	c #AEAEAE",
"n.	c #9E9E9F",
"o.	c #61655E",
"p.	c #CFE3C1",
"q.	c #D1E5C3",
"r.	c #D0E4C2",
"s.	c #CEE3C1",
"t.	c #CDE1C0",
"u.	c #CCE1BF",
"v.	c #CADEBD",
"w.	c #C8DDBC",
"x.	c #D8E5C9",
"y.	c #87B57B",
"z.	c #B6D1A4",
"A.	c #C7DBBB",
"B.	c #C1D8B5",
"C.	c #C4DBB8",
"D.	c #C7DEBA",
"E.	c #52564F",
"F.	c #393839",
"G.	c #525252",
"H.	c #7F7F7F",
"I.	c #919191",
"J.	c #8F8E8F",
"K.	c #585A56",
"L.	c #C6D9B9",
"M.	c #CFE2C1",
"N.	c #CEE2C0",
"O.	c #CCE1BE",
"P.	c #CBE0BD",
"Q.	c #C9DFBC",
"R.	c #C8DFBB",
"S.	c #C5DCB9",
"T.	c #CBDEBE",
"U.	c #BBD3A7",
"V.	c #498C4C",
"W.	c #C4D8B1",
"X.	c #BDD5B1",
"Y.	c #BED6B2",
"Z.	c #C1D9B5",
"`.	c #C4DBB7",
" +	c #4E534B",
".+	c #353435",
"++	c #474747",
"@+	c #5A5A5A",
"#+	c #706F70",
"$+	c #50534E",
"%+	c #BBD3AB",
"&+	c #C4DEB3",
"*+	c #C2DBB1",
"=+	c #C3DBB2",
"-+	c #C4DCB4",
";+	c #C6DDB7",
">+	c #C8DEB9",
",+	c #CEE5C0",
"'+	c #CFE6C0",
")+	c #C6DDB9",
"!+	c #BCD3AF",
"~+	c #C2DAB5",
"{+	c #C5DEB9",
"]+	c #C8DBB5",
"^+	c #4F9050",
"/+	c #6DA267",
"(+	c #C0D5AF",
"_+	c #B7D1AC",
":+	c #BBD4AE",
"<+	c #BED6B0",
"[+	c #C6DFB9",
"}+	c #596055",
"|+	c #2B2A2C",
"1+	c #3D3D3D",
"2+	c #434343",
"3+	c #484848",
"4+	c #464547",
"5+	c #4F554B",
"6+	c #B6D5A3",
"7+	c #B7D5A3",
"8+	c #B6D4A2",
"9+	c #B6D4A3",
"0+	c #B6D3A3",
"a+	c #B7D4A4",
"b+	c #BEDBAB",
"c+	c #BED9AD",
"d+	c #9BAC90",
"e+	c #6E7868",
"f+	c #595E55",
"g+	c #51554F",
"h+	c #4A4E47",
"i+	c #95A78B",
"j+	c #CADFB8",
"k+	c #72A56B",
"l+	c #82AF77",
"m+	c #B8CFA8",
"n+	c #B4CEA7",
"o+	c #B7D1AA",
"p+	c #BAD3AD",
"q+	c #BFDBAF",
"r+	c #6F7F66",
"s+	c #201E21",
"t+	c #323232",
"u+	c #363636",
"v+	c #282629",
"w+	c #64705C",
"x+	c #BDDCA9",
"y+	c #B5D3A2",
"z+	c #B6D3A2",
"A+	c #BBDAA7",
"B+	c #94AC85",
"C+	c #565E52",
"D+	c #616061",
"E+	c #979698",
"F+	c #C5C4C6",
"G+	c #E9E8E9",
"H+	c #8C8A8E",
"I+	c #5B6755",
"J+	c #C6DFB5",
"K+	c #89B27A",
"L+	c #B1CBA2",
"M+	c #AFCCA3",
"N+	c #B1CDA4",
"O+	c #AAC89B",
"P+	c #AACB98",
"Q+	c #93AE84",
"R+	c #212120",
"S+	c #242424",
"T+	c #292929",
"U+	c #201F20",
"V+	c #8EA47F",
"W+	c #B9D8A6",
"X+	c #B3D1A1",
"Y+	c #B3D2A1",
"Z+	c #B9D9A5",
"`+	c #7C8E71",
" @	c #474848",
".@	c #888689",
"+@	c #BFBFBF",
"@@	c #CECECE",
"#@	c #D6D6D6",
"$@	c #DDDDDD",
"%@	c #5E5C5F",
"&@	c #74846D",
"*@	c #BFD9AE",
"=@	c #8DB47D",
"-@	c #85AD76",
";@	c #ACC79D",
">@	c #A7C59B",
",@	c #9FC090",
"'@	c #9FC08E",
")@	c #A3C492",
"!@	c #ADCF9B",
"~@	c #4C5845",
"{@	c #0F0D10",
"]@	c #1D1D1D",
"^@	c #131214",
"/@	c #3F473B",
"(@	c #B2D1A0",
"_@	c #B1D09F",
":@	c #B1CF9E",
"<@	c #B0CF9E",
"[@	c #B8D8A5",
"}@	c #7D9071",
"|@	c #3B393B",
"1@	c #797879",
"2@	c #999999",
"3@	c #A5A5A5",
"4@	c #ACACAC",
"5@	c #656465",
"6@	c #2D2E2C",
"7@	c #9CB590",
"8@	c #B6D0A5",
"9@	c #89B079",
"0@	c #7EA96F",
"a@	c #A3C194",
"b@	c #96BA88",
"c@	c #97BB88",
"d@	c #9DBE8D",
"e@	c #9FC18F",
"f@	c #A6C995",
"g@	c #96B487",
"h@	c #1A1D19",
"i@	c #040205",
"j@	c #111211",
"k@	c #8FA980",
"l@	c #ADCC9B",
"m@	c #ADCD9C",
"n@	c #AECD9C",
"o@	c #B2D3A0",
"p@	c #99B38A",
"q@	c #2F2F2E",
"r@	c #444344",
"s@	c #616161",
"t@	c #767676",
"u@	c #878787",
"v@	c #818181",
"w@	c #565656",
"x@	c #2E2C30",
"y@	c #5B6855",
"z@	c #A2C693",
"A@	c #AAC699",
"B@	c #83AB72",
"C@	c #6C9C60",
"D@	c #96B783",
"E@	c #8FB582",
"F@	c #95B886",
"G@	c #98BB89",
"H@	c #9CBE8C",
"I@	c #9EC08E",
"J@	c #A8CC97",
"K@	c #7E9871",
"L@	c #22291F",
"M@	c #718766",
"N@	c #B0D29E",
"O@	c #A9C897",
"P@	c #AAC998",
"Q@	c #AACA99",
"R@	c #ABCA99",
"S@	c #505B49",
"T@	c #222023",
"U@	c #383838",
"V@	c #444444",
"W@	c #555555",
"X@	c #4A4A4A",
"Y@	c #3A393B",
"Z@	c #3F423D",
"`@	c #91B183",
" #	c #99BD8A",
".#	c #9DBD89",
"+#	c #719F65",
"@#	c #518C50",
"##	c #92B37C",
"$#	c #8BB17F",
"%#	c #90B582",
"&#	c #93B886",
"*#	c #97BA89",
"=#	c #9ABD8A",
"-#	c #9CBE8D",
";#	c #A4C693",
">#	c #A1C391",
",#	c #A8C997",
"'#	c #A4C593",
")#	c #A5C694",
"!#	c #A6C695",
"~#	c #A7C795",
"{#	c #AACC99",
"]#	c #94B085",
"^#	c #1E1F1D",
"/#	c #242324",
"(#	c #313131",
"_#	c #3A3A3A",
":#	c #414141",
"<#	c #39373A",
"[#	c #373837",
"}#	c #7F9974",
"|#	c #9BC18C",
"1#	c #91B684",
"2#	c #9ABA82",
"3#	c #558E51",
"4#	c #2E783A",
"5#	c #8FB078",
"6#	c #87AE7A",
"7#	c #8AB07E",
"8#	c #8FB481",
"9#	c #92B784",
"0#	c #95B987",
"a#	c #9BBD8B",
"b#	c #9EC08F",
"c#	c #A0C18F",
"d#	c #A1C291",
"e#	c #A2C392",
"f#	c #ABCE99",
"g#	c #697D5E",
"h#	c #0B090C",
"i#	c #1E1E1E",
"j#	c #282828",
"k#	c #2E2E2E",
"l#	c #302F31",
"m#	c #2B282C",
"n#	c #393C38",
"o#	c #7C9771",
"p#	c #9AC08B",
"q#	c #91B583",
"r#	c #8FB480",
"s#	c #97B67D",
"t#	c #31773C",
"u#	c #7CA36A",
"v#	c #88AD77",
"w#	c #84AB79",
"x#	c #89AF7C",
"y#	c #8DB280",
"z#	c #93B884",
"A#	c #96B987",
"B#	c #99BC8A",
"C#	c #9BBE8C",
"D#	c #9CBF8D",
"E#	c #9DBF8D",
"F#	c #9DC08E",
"G#	c #4D5C45",
"H#	c #000000",
"I#	c #0D0B0E",
"J#	c #141215",
"K#	c #1C1A1D",
"L#	c #2D2F2C",
"M#	c #56654F",
"N#	c #8BAC7E",
"O#	c #97BE89",
"P#	c #8BB17E",
"Q#	c #91B47E",
"R#	c #82A76E",
"S#	c #4C874C",
"T#	c #8DAF77",
"U#	c #80A874",
"V#	c #83AA77",
"W#	c #87AE7B",
"X#	c #8AB07D",
"Y#	c #8DB380",
"Z#	c #8EB381",
"`#	c #98BE89",
" $	c #97BB89",
".$	c #9DC18D",
"+$	c #7C9970",
"@$	c #42513C",
"#$	c #414E3B",
"$$	c #52644B",
"%$	c #6C8563",
"&$	c #89AA7C",
"*$	c #92B884",
"=$	c #8CB27F",
"-$	c #86AD7A",
";$	c #97B67E",
">$	c #518950",
",$	c #7EA26B",
"'$	c #85AB73",
")$	c #7CA471",
"!$	c #81A875",
"~$	c #84AB78",
"{$	c #8AB27D",
"]$	c #75966A",
"^$	c #3E4E38",
"/$	c #5D7554",
"($	c #8AAE7D",
"_$	c #98BF8A",
":$	c #92B684",
"<$	c #97BC88",
"[$	c #99BF8A",
"}$	c #98C08A",
"|$	c #95BC87",
"1$	c #90B682",
"2$	c #86AC79",
"3$	c #81A976",
"4$	c #8EB27A",
"5$	c #84A76F",
"6$	c #3C7D42",
"7$	c #8CAC75",
"8$	c #7EA670",
"9$	c #78A26E",
"0$	c #7DA672",
"a$	c #81A975",
"b$	c #86AE7A",
"c$	c #617D58",
"d$	c #192016",
"e$	c #121811",
"f$	c #556C4D",
"g$	c #8CB37F",
"h$	c #8DB37F",
"i$	c #8CB17E",
"j$	c #88AF7C",
"k$	c #87AD7A",
"l$	c #85AC79",
"m$	c #82AA76",
"n$	c #85AB76",
"o$	c #94B27A",
"p$	c #3F7C45",
"q$	c #5A8A56",
"r$	c #8CAE75",
"s$	c #7BA46D",
"t$	c #749E6A",
"u$	c #79A26E",
"v$	c #7CA571",
"w$	c #85AE78",
"x$	c #58724F",
"y$	c #2E3C2A",
"z$	c #56704E",
"A$	c #88B07B",
"B$	c #82A976",
"C$	c #7EA672",
"D$	c #79A26F",
"E$	c #81A872",
"F$	c #94B37B",
"G$	c #5E8D58",
"H$	c #64905B",
"I$	c #8CAD75",
"J$	c #7CA46D",
"K$	c #709B67",
"L$	c #739E69",
"M$	c #77A06C",
"N$	c #7AA46F",
"O$	c #82AC75",
"P$	c #82AD76",
"Q$	c #79A16E",
"R$	c #7DA572",
"S$	c #7DA571",
"T$	c #7CA470",
"U$	c #7AA36F",
"V$	c #77A16D",
"W$	c #759F6B",
"X$	c #82A972",
"Y$	c #94B37A",
"Z$	c #69925E",
"`$	c #5D8B57",
" %	c #8BAB74",
".%	c #83AA71",
"+%	c #739D67",
"@%	c #6D9864",
"#%	c #6F9A66",
"$%	c #729C68",
"%%	c #76A06B",
"&%	c #76A06C",
"*%	c #719C68",
"=%	c #77A06B",
"-%	c #89AE75",
";%	c #91AF78",
">%	c #5F8C58",
",%	c #437C47",
"'%	c #7FA06C",
")%	c #8BAE75",
"!%	c #82A86F",
"~%	c #769F68",
"{%	c #6E9963",
"]%	c #6B9762",
"^%	c #6A9762",
"/%	c #6B9763",
"(%	c #6C9863",
"_%	c #709A65",
":%	c #78A16A",
"<%	c #86AB73",
"[%	c #91B278",
"}%	c #83A36F",
"|%	c #457C47",
"1%	c #1B672F",
"2%	c #568452",
"3%	c #7D9F6B",
"4%	c #8BAC74",
"5%	c #8AAD74",
"6%	c #85AA71",
"7%	c #81A86F",
"8%	c #7FA66E",
"9%	c #80A66E",
"0%	c #82A870",
"a%	c #87AC73",
"b%	c #8DAF76",
"c%	c #8EAE76",
"d%	c #81A16D",
"e%	c #568653",
"f%	c #1C672F",
"g%	c #3D7743",
"h%	c #5C8856",
"i%	c #709562",
"j%	c #7C9E6A",
"k%	c #80A16D",
"l%	c #7D9E6B",
"m%	c #719663",
"n%	c #5E8956",
"o%	c #3F7843",
"p%	c #18642C",
"q%	c #17652C",
"                          . + @ @ # $                           ",
"                    % & * = - ; ; - > , ' )                     ",
"                ! ~ { ] ^ / ( _ _ : < [ } | 1 2                 ",
"              3 4 5 6 7 8 9 0 0 0 0 a 8 b c d e f               ",
"            g h i j k l m n n n n n n n o o p q r s             ",
"          t u v w x y z A B C C C C D C E E F G H I J           ",
"        K L M N O P Q R S T U V V V V F F W X Y Z `  ...        ",
"      +.@.#.$.%.&.*.=.-.;.>.,.'.'.'.'.'.).T !.~.{.].^./.(.      ",
"      _.:.<.[.}.|.1.2.3.4.5.6.Z Z Z Z Z 7.{.8.9.].0.a.b.c.      ",
"    d.e.f.g.h.i.j.k.l.m.n.o.p.q.8.r.r.r.9.s.0.t.u.a.v.w.x.y.    ",
"    z.A.B.C.D.E.F.G.H.I.J.K.L.q.M.M.0.N.t.u.O.P.Q.Q.R.S.T.U.    ",
"  V.W.X.Y.Z.`. +.+++@+1.#+$+%+&+*+=+-+;+>+Q.P.,+'+)+!+~+{+]+^+  ",
"  /+(+_+:+<+[+}+|+1+2+3+4+5+6+7+8+9+9+0+a+b+c+d+e+f+g+h+i+j+k+  ",
"  l+m+n+o+p+q+r+s+t+u+u+v+w+x+y+z+z+y+y+A+B+C+D+E+F+G+H+I+J+K+  ",
"  K+L+M+N+O+P+Q+R+S+T+T+U+V+W+X+X+X+Y+Z+`+ @.@+@@@#@$@%@&@*@=@  ",
"  -@;@>@,@'@)@!@~@{@]@^@/@(@_@:@:@<@[@}@|@1@2@3@m.4@5@6@7@8@9@  ",
"  0@a@b@c@d@e@f@g@h@i@j@k@& l@m@n@o@p@q@r@s@t@u@v@w@x@y@z@A@B@  ",
"  C@D@E@F@G@H@I@J@K@L@M@N@O@P@Q@R@N@S@T@U@V@G.W@X@Y@Z@`@ #.#+#  ",
"  @###$#%#&#*#=#-#;#>#,#'#)#!#~#{#]#^#/#(#_#x :#<#[#}#|#1#2#3#  ",
"  4#5#6#7#8#9#0#G@a#I@b#c#d#e#e#f#g#h#i#j#k#l#m#n#o#p#q#r#s#t#  ",
"    u#v#w#x#y#%#z#A#G@B#C#D#E#F#J@G#H#I#J#K#L#M#N#O#8#P#Q#R#    ",
"    S#T#U#V#W#X#Y#Z#`#|# $b@ $G@.$+$@$#$$$%$&$`#*$=$x#-$;$>$    ",
"      ,$'$)$!$~${$]$^$/$($_$9#:$:$<$|#[$}$|$1$P#x#2$3$4$5$      ",
"      6$7$8$9$0$a$b$c$d$e$f$g$h$=$=$i$P#X#j$k$l$m$0$n$o$p$      ",
"        q$r$s$t$u$v$w$a$x$y$z$A$l$l$l$~$V#B$U#C$D$E$F$G$        ",
"          H$I$J$K$L$M$N$O$P$Q$R$C$C$C$S$T$U$V$W$X$Y$Z$          ",
"            `$ %.%+%@%#%$%t$%%&%&%&%W$t$*%K$=%-%;%>%            ",
"              ,%'%)%!%~%{%]%^%/%/%/%(%_%:%<%[%}%|%              ",
"                1%2%3%4%5%6%7%8%9%0%a%b%c%d%e%f%                ",
"                      g%h%i%j%k%k%l%m%n%o%p%                    ",
"                              q%q%                              ",
"                                                                "};
